<svg width="318" height="195" viewBox="0 0 318 195" fill="none" xmlns="http://www.w3.org/2000/svg">
<g filter="url(#filter0_d_203_1331)">
<rect x="16" y="12.5" width="286" height="162" rx="15" fill="white"/>
</g>
<rect opacity="0.5" x="24.5" y="29" width="270" height="130" rx="4.5" stroke="#F5884E" stroke-dasharray="4 4"/>
<path d="M153 75.5C152.167 75.5 151.458 75.2083 150.875 74.625C150.292 74.0417 150 73.3333 150 72.5V58.5C150 57.6667 150.292 56.9583 150.875 56.375C151.458 55.7917 152.167 55.5 153 55.5H167C167.833 55.5 168.542 55.7917 169.125 56.375C169.708 56.9583 170 57.6667 170 58.5V72.5C170 73.3333 169.708 74.0417 169.125 74.625C168.542 75.2083 167.833 75.5 167 75.5H153ZM153 74H167C167.433 74 167.792 73.8542 168.075 73.5625C168.358 73.2708 168.5 72.9167 168.5 72.5V58.5C168.5 58.0667 168.358 57.7083 168.075 57.425C167.792 57.1417 167.433 57 167 57H153C152.583 57 152.229 57.1417 151.938 57.425C151.646 57.7083 151.5 58.0667 151.5 58.5V72.5C151.5 72.9167 151.646 73.2708 151.938 73.5625C152.229 73.8542 152.583 74 153 74ZM154.6 71.25L158 67.85L159.825 69.65L162 66.9L165.475 71.25H154.6ZM156 63.25C155.517 63.25 155.104 63.0792 154.762 62.7375C154.421 62.3958 154.25 61.9833 154.25 61.5C154.25 61.0167 154.421 60.6042 154.762 60.2625C155.104 59.9208 155.517 59.75 156 59.75C156.483 59.75 156.896 59.9208 157.238 60.2625C157.579 60.6042 157.75 61.0167 157.75 61.5C157.75 61.9833 157.579 62.3958 157.238 62.7375C156.896 63.0792 156.483 63.25 156 63.25Z" fill="#F5884E"/>
<path d="M150.364 96.216C150.812 96.296 151.192 96.532 151.504 96.924C151.816 97.316 151.972 97.76 151.972 98.256C151.972 98.68 151.86 99.064 151.636 99.408C151.42 99.744 151.104 100.012 150.688 100.212C150.272 100.404 149.788 100.5 149.236 100.5H145.9V92.16H149.08C149.648 92.16 150.136 92.256 150.544 92.448C150.952 92.64 151.26 92.9 151.468 93.228C151.676 93.548 151.78 93.908 151.78 94.308C151.78 94.788 151.652 95.188 151.396 95.508C151.14 95.828 150.796 96.064 150.364 96.216ZM147.268 95.664H148.96C149.408 95.664 149.756 95.564 150.004 95.364C150.26 95.156 150.388 94.86 150.388 94.476C150.388 94.1 150.26 93.808 150.004 93.6C149.756 93.384 149.408 93.276 148.96 93.276H147.268V95.664ZM149.116 99.384C149.58 99.384 149.944 99.272 150.208 99.048C150.472 98.824 150.604 98.512 150.604 98.112C150.604 97.704 150.464 97.38 150.184 97.14C149.904 96.9 149.532 96.78 149.068 96.78H147.268V99.384H149.116ZM153.003 97.164C153.003 96.5 153.139 95.912 153.411 95.4C153.691 94.888 154.067 94.492 154.539 94.212C155.019 93.924 155.547 93.78 156.123 93.78C156.643 93.78 157.095 93.884 157.479 94.092C157.871 94.292 158.183 94.544 158.415 94.848V93.888H159.795V100.5H158.415V99.516C158.183 99.828 157.867 100.088 157.467 100.296C157.067 100.504 156.611 100.608 156.099 100.608C155.531 100.608 155.011 100.464 154.539 100.176C154.067 99.88 153.691 99.472 153.411 98.952C153.139 98.424 153.003 97.828 153.003 97.164ZM158.415 97.188C158.415 96.732 158.319 96.336 158.127 96C157.943 95.664 157.699 95.408 157.395 95.232C157.091 95.056 156.763 94.968 156.411 94.968C156.059 94.968 155.731 95.056 155.427 95.232C155.123 95.4 154.875 95.652 154.683 95.988C154.499 96.316 154.407 96.708 154.407 97.164C154.407 97.62 154.499 98.02 154.683 98.364C154.875 98.708 155.123 98.972 155.427 99.156C155.739 99.332 156.067 99.42 156.411 99.42C156.763 99.42 157.091 99.332 157.395 99.156C157.699 98.98 157.943 98.724 158.127 98.388C158.319 98.044 158.415 97.644 158.415 97.188ZM161.135 97.188C161.135 96.508 161.271 95.912 161.543 95.4C161.823 94.88 162.207 94.48 162.695 94.2C163.183 93.92 163.743 93.78 164.375 93.78C165.175 93.78 165.835 93.972 166.355 94.356C166.883 94.732 167.239 95.272 167.423 95.976H165.947C165.827 95.648 165.635 95.392 165.371 95.208C165.107 95.024 164.775 94.932 164.375 94.932C163.815 94.932 163.367 95.132 163.031 95.532C162.703 95.924 162.539 96.476 162.539 97.188C162.539 97.9 162.703 98.456 163.031 98.856C163.367 99.256 163.815 99.456 164.375 99.456C165.167 99.456 165.691 99.108 165.947 98.412H167.423C167.231 99.084 166.871 99.62 166.343 100.02C165.815 100.412 165.159 100.608 164.375 100.608C163.743 100.608 163.183 100.468 162.695 100.188C162.207 99.9 161.823 99.5 161.543 98.988C161.271 98.468 161.135 97.868 161.135 97.188ZM171.403 97.2L174.451 100.5H172.603L170.155 97.656V100.5H168.787V91.62H170.155V96.78L172.555 93.888H174.451L171.403 97.2Z" fill="#F5884E"/>
<path d="M105.48 119.57C105.02 119.57 104.607 119.49 104.24 119.33C103.88 119.163 103.597 118.937 103.39 118.65C103.183 118.357 103.077 118.02 103.07 117.64H104.04C104.073 117.967 104.207 118.243 104.44 118.47C104.68 118.69 105.027 118.8 105.48 118.8C105.913 118.8 106.253 118.693 106.5 118.48C106.753 118.26 106.88 117.98 106.88 117.64C106.88 117.373 106.807 117.157 106.66 116.99C106.513 116.823 106.33 116.697 106.11 116.61C105.89 116.523 105.593 116.43 105.22 116.33C104.76 116.21 104.39 116.09 104.11 115.97C103.837 115.85 103.6 115.663 103.4 115.41C103.207 115.15 103.11 114.803 103.11 114.37C103.11 113.99 103.207 113.653 103.4 113.36C103.593 113.067 103.863 112.84 104.21 112.68C104.563 112.52 104.967 112.44 105.42 112.44C106.073 112.44 106.607 112.603 107.02 112.93C107.44 113.257 107.677 113.69 107.73 114.23H106.73C106.697 113.963 106.557 113.73 106.31 113.53C106.063 113.323 105.737 113.22 105.33 113.22C104.95 113.22 104.64 113.32 104.4 113.52C104.16 113.713 104.04 113.987 104.04 114.34C104.04 114.593 104.11 114.8 104.25 114.96C104.397 115.12 104.573 115.243 104.78 115.33C104.993 115.41 105.29 115.503 105.67 115.61C106.13 115.737 106.5 115.863 106.78 115.99C107.06 116.11 107.3 116.3 107.5 116.56C107.7 116.813 107.8 117.16 107.8 117.6C107.8 117.94 107.71 118.26 107.53 118.56C107.35 118.86 107.083 119.103 106.73 119.29C106.377 119.477 105.96 119.57 105.48 119.57ZM113.999 114.02V119.5H113.089V118.69C112.916 118.97 112.672 119.19 112.359 119.35C112.052 119.503 111.712 119.58 111.339 119.58C110.912 119.58 110.529 119.493 110.189 119.32C109.849 119.14 109.579 118.873 109.379 118.52C109.186 118.167 109.089 117.737 109.089 117.23V114.02H109.989V117.11C109.989 117.65 110.126 118.067 110.399 118.36C110.672 118.647 111.046 118.79 111.519 118.79C112.006 118.79 112.389 118.64 112.669 118.34C112.949 118.04 113.089 117.603 113.089 117.03V114.02H113.999ZM116.446 115.03C116.626 114.717 116.892 114.457 117.246 114.25C117.606 114.037 118.022 113.93 118.496 113.93C118.982 113.93 119.422 114.047 119.816 114.28C120.216 114.513 120.529 114.843 120.756 115.27C120.982 115.69 121.096 116.18 121.096 116.74C121.096 117.293 120.982 117.787 120.756 118.22C120.529 118.653 120.216 118.99 119.816 119.23C119.422 119.47 118.982 119.59 118.496 119.59C118.029 119.59 117.616 119.487 117.256 119.28C116.902 119.067 116.632 118.803 116.446 118.49V122.1H115.536V114.02H116.446V115.03ZM120.166 116.74C120.166 116.327 120.082 115.967 119.916 115.66C119.749 115.353 119.522 115.12 119.236 114.96C118.956 114.8 118.646 114.72 118.306 114.72C117.972 114.72 117.662 114.803 117.376 114.97C117.096 115.13 116.869 115.367 116.696 115.68C116.529 115.987 116.446 116.343 116.446 116.75C116.446 117.163 116.529 117.527 116.696 117.84C116.869 118.147 117.096 118.383 117.376 118.55C117.662 118.71 117.972 118.79 118.306 118.79C118.646 118.79 118.956 118.71 119.236 118.55C119.522 118.383 119.749 118.147 119.916 117.84C120.082 117.527 120.166 117.16 120.166 116.74ZM123.203 115.03C123.383 114.717 123.65 114.457 124.003 114.25C124.363 114.037 124.78 113.93 125.253 113.93C125.74 113.93 126.18 114.047 126.573 114.28C126.973 114.513 127.287 114.843 127.513 115.27C127.74 115.69 127.853 116.18 127.853 116.74C127.853 117.293 127.74 117.787 127.513 118.22C127.287 118.653 126.973 118.99 126.573 119.23C126.18 119.47 125.74 119.59 125.253 119.59C124.787 119.59 124.373 119.487 124.013 119.28C123.66 119.067 123.39 118.803 123.203 118.49V122.1H122.293V114.02H123.203V115.03ZM126.923 116.74C126.923 116.327 126.84 115.967 126.673 115.66C126.507 115.353 126.28 115.12 125.993 114.96C125.713 114.8 125.403 114.72 125.063 114.72C124.73 114.72 124.42 114.803 124.133 114.97C123.853 115.13 123.627 115.367 123.453 115.68C123.287 115.987 123.203 116.343 123.203 116.75C123.203 117.163 123.287 117.527 123.453 117.84C123.627 118.147 123.853 118.383 124.133 118.55C124.42 118.71 124.73 118.79 125.063 118.79C125.403 118.79 125.713 118.71 125.993 118.55C126.28 118.383 126.507 118.147 126.673 117.84C126.84 117.527 126.923 117.16 126.923 116.74ZM131.441 119.59C130.928 119.59 130.461 119.473 130.041 119.24C129.628 119.007 129.301 118.677 129.061 118.25C128.828 117.817 128.711 117.317 128.711 116.75C128.711 116.19 128.831 115.697 129.071 115.27C129.318 114.837 129.651 114.507 130.071 114.28C130.491 114.047 130.961 113.93 131.481 113.93C132.001 113.93 132.471 114.047 132.891 114.28C133.311 114.507 133.641 114.833 133.881 115.26C134.128 115.687 134.251 116.183 134.251 116.75C134.251 117.317 134.125 117.817 133.871 118.25C133.625 118.677 133.288 119.007 132.861 119.24C132.435 119.473 131.961 119.59 131.441 119.59ZM131.441 118.79C131.768 118.79 132.075 118.713 132.361 118.56C132.648 118.407 132.878 118.177 133.051 117.87C133.231 117.563 133.321 117.19 133.321 116.75C133.321 116.31 133.235 115.937 133.061 115.63C132.888 115.323 132.661 115.097 132.381 114.95C132.101 114.797 131.798 114.72 131.471 114.72C131.138 114.72 130.831 114.797 130.551 114.95C130.278 115.097 130.058 115.323 129.891 115.63C129.725 115.937 129.641 116.31 129.641 116.75C129.641 117.197 129.721 117.573 129.881 117.88C130.048 118.187 130.268 118.417 130.541 118.57C130.815 118.717 131.115 118.79 131.441 118.79ZM136.358 114.91C136.518 114.597 136.744 114.353 137.038 114.18C137.338 114.007 137.701 113.92 138.128 113.92V114.86H137.888C136.868 114.86 136.358 115.413 136.358 116.52V119.5H135.448V114.02H136.358V114.91ZM140.288 114.77V118C140.288 118.267 140.345 118.457 140.458 118.57C140.572 118.677 140.768 118.73 141.048 118.73H141.718V119.5H140.898C140.392 119.5 140.012 119.383 139.758 119.15C139.505 118.917 139.378 118.533 139.378 118V114.77H138.668V114.02H139.378V112.64H140.288V114.02H141.718V114.77H140.288ZM144.761 119.59C144.341 119.59 143.964 119.52 143.631 119.38C143.297 119.233 143.034 119.033 142.841 118.78C142.647 118.52 142.541 118.223 142.521 117.89H143.461C143.487 118.163 143.614 118.387 143.841 118.56C144.074 118.733 144.377 118.82 144.751 118.82C145.097 118.82 145.371 118.743 145.571 118.59C145.771 118.437 145.871 118.243 145.871 118.01C145.871 117.77 145.764 117.593 145.551 117.48C145.337 117.36 145.007 117.243 144.561 117.13C144.154 117.023 143.821 116.917 143.561 116.81C143.307 116.697 143.087 116.533 142.901 116.32C142.721 116.1 142.631 115.813 142.631 115.46C142.631 115.18 142.714 114.923 142.881 114.69C143.047 114.457 143.284 114.273 143.591 114.14C143.897 114 144.247 113.93 144.641 113.93C145.247 113.93 145.737 114.083 146.111 114.39C146.484 114.697 146.684 115.117 146.711 115.65H145.801C145.781 115.363 145.664 115.133 145.451 114.96C145.244 114.787 144.964 114.7 144.611 114.7C144.284 114.7 144.024 114.77 143.831 114.91C143.637 115.05 143.541 115.233 143.541 115.46C143.541 115.64 143.597 115.79 143.711 115.91C143.831 116.023 143.977 116.117 144.151 116.19C144.331 116.257 144.577 116.333 144.891 116.42C145.284 116.527 145.604 116.633 145.851 116.74C146.097 116.84 146.307 116.993 146.481 117.2C146.661 117.407 146.754 117.677 146.761 118.01C146.761 118.31 146.677 118.58 146.511 118.82C146.344 119.06 146.107 119.25 145.801 119.39C145.501 119.523 145.154 119.59 144.761 119.59ZM154.221 112.53V117.68C154.221 118.253 154.045 118.713 153.691 119.06C153.338 119.4 152.871 119.57 152.291 119.57C151.705 119.57 151.235 119.397 150.881 119.05C150.528 118.697 150.351 118.217 150.351 117.61H151.261C151.268 117.95 151.355 118.227 151.521 118.44C151.695 118.653 151.951 118.76 152.291 118.76C152.631 118.76 152.885 118.66 153.051 118.46C153.218 118.253 153.301 117.993 153.301 117.68V112.53H154.221ZM160.674 114.57C160.674 115.15 160.474 115.633 160.074 116.02C159.681 116.4 159.077 116.59 158.264 116.59H156.924V119.5H156.014V112.53H158.264C159.051 112.53 159.647 112.72 160.054 113.1C160.467 113.48 160.674 113.97 160.674 114.57ZM158.264 115.84C158.771 115.84 159.144 115.73 159.384 115.51C159.624 115.29 159.744 114.977 159.744 114.57C159.744 113.71 159.251 113.28 158.264 113.28H156.924V115.84H158.264ZM167.085 114.55C166.892 114.143 166.612 113.83 166.245 113.61C165.878 113.383 165.452 113.27 164.965 113.27C164.478 113.27 164.038 113.383 163.645 113.61C163.258 113.83 162.952 114.15 162.725 114.57C162.505 114.983 162.395 115.463 162.395 116.01C162.395 116.557 162.505 117.037 162.725 117.45C162.952 117.863 163.258 118.183 163.645 118.41C164.038 118.63 164.478 118.74 164.965 118.74C165.645 118.74 166.205 118.537 166.645 118.13C167.085 117.723 167.342 117.173 167.415 116.48H164.635V115.74H168.385V116.44C168.332 117.013 168.152 117.54 167.845 118.02C167.538 118.493 167.135 118.87 166.635 119.15C166.135 119.423 165.578 119.56 164.965 119.56C164.318 119.56 163.728 119.41 163.195 119.11C162.662 118.803 162.238 118.38 161.925 117.84C161.618 117.3 161.465 116.69 161.465 116.01C161.465 115.33 161.618 114.72 161.925 114.18C162.238 113.633 162.662 113.21 163.195 112.91C163.728 112.603 164.318 112.45 164.965 112.45C165.705 112.45 166.358 112.633 166.925 113C167.498 113.367 167.915 113.883 168.175 114.55H167.085ZM170.528 118.24L169.408 120.93H168.798L169.528 118.24H170.528ZM175.081 112.53V117.68C175.081 118.253 174.904 118.713 174.551 119.06C174.197 119.4 173.731 119.57 173.151 119.57C172.564 119.57 172.094 119.397 171.741 119.05C171.387 118.697 171.211 118.217 171.211 117.61H172.121C172.127 117.95 172.214 118.227 172.381 118.44C172.554 118.653 172.811 118.76 173.151 118.76C173.491 118.76 173.744 118.66 173.911 118.46C174.077 118.253 174.161 117.993 174.161 117.68V112.53H175.081ZM181.534 114.57C181.534 115.15 181.334 115.633 180.934 116.02C180.54 116.4 179.937 116.59 179.124 116.59H177.784V119.5H176.874V112.53H179.124C179.91 112.53 180.507 112.72 180.914 113.1C181.327 113.48 181.534 113.97 181.534 114.57ZM179.124 115.84C179.63 115.84 180.004 115.73 180.244 115.51C180.484 115.29 180.604 114.977 180.604 114.57C180.604 113.71 180.11 113.28 179.124 113.28H177.784V115.84H179.124ZM183.575 113.27V115.6H186.115V116.35H183.575V118.75H186.415V119.5H182.665V112.52H186.415V113.27H183.575ZM193.071 114.55C192.878 114.143 192.598 113.83 192.231 113.61C191.865 113.383 191.438 113.27 190.951 113.27C190.465 113.27 190.025 113.383 189.631 113.61C189.245 113.83 188.938 114.15 188.711 114.57C188.491 114.983 188.381 115.463 188.381 116.01C188.381 116.557 188.491 117.037 188.711 117.45C188.938 117.863 189.245 118.183 189.631 118.41C190.025 118.63 190.465 118.74 190.951 118.74C191.631 118.74 192.191 118.537 192.631 118.13C193.071 117.723 193.328 117.173 193.401 116.48H190.621V115.74H194.371V116.44C194.318 117.013 194.138 117.54 193.831 118.02C193.525 118.493 193.121 118.87 192.621 119.15C192.121 119.423 191.565 119.56 190.951 119.56C190.305 119.56 189.715 119.41 189.181 119.11C188.648 118.803 188.225 118.38 187.911 117.84C187.605 117.3 187.451 116.69 187.451 116.01C187.451 115.33 187.605 114.72 187.911 114.18C188.225 113.633 188.648 113.21 189.181 112.91C189.715 112.603 190.305 112.45 190.951 112.45C191.691 112.45 192.345 112.633 192.911 113C193.485 113.367 193.901 113.883 194.161 114.55H193.071ZM196.515 118.24L195.395 120.93H194.785L195.515 118.24H196.515ZM202.217 114.57C202.217 115.15 202.017 115.633 201.617 116.02C201.224 116.4 200.62 116.59 199.807 116.59H198.467V119.5H197.557V112.53H199.807C200.594 112.53 201.19 112.72 201.597 113.1C202.01 113.48 202.217 113.97 202.217 114.57ZM199.807 115.84C200.314 115.84 200.687 115.73 200.927 115.51C201.167 115.29 201.287 114.977 201.287 114.57C201.287 113.71 200.794 113.28 199.807 113.28H198.467V115.84H199.807ZM208.828 119.5H207.918L204.258 113.95V119.5H203.348V112.52H204.258L207.918 118.06V112.52H208.828V119.5ZM215.659 114.55C215.466 114.143 215.186 113.83 214.819 113.61C214.453 113.383 214.026 113.27 213.539 113.27C213.053 113.27 212.613 113.383 212.219 113.61C211.833 113.83 211.526 114.15 211.299 114.57C211.079 114.983 210.969 115.463 210.969 116.01C210.969 116.557 211.079 117.037 211.299 117.45C211.526 117.863 211.833 118.183 212.219 118.41C212.613 118.63 213.053 118.74 213.539 118.74C214.219 118.74 214.779 118.537 215.219 118.13C215.659 117.723 215.916 117.173 215.989 116.48H213.209V115.74H216.959V116.44C216.906 117.013 216.726 117.54 216.419 118.02C216.113 118.493 215.709 118.87 215.209 119.15C214.709 119.423 214.153 119.56 213.539 119.56C212.893 119.56 212.303 119.41 211.769 119.11C211.236 118.803 210.813 118.38 210.499 117.84C210.193 117.3 210.039 116.69 210.039 116.01C210.039 115.33 210.193 114.72 210.499 114.18C210.813 113.633 211.236 113.21 211.769 112.91C212.303 112.603 212.893 112.45 213.539 112.45C214.279 112.45 214.933 112.633 215.499 113C216.073 113.367 216.489 113.883 216.749 114.55H215.659Z" fill="#F5884E"/>
<defs>
<filter id="filter0_d_203_1331" x="0" y="0.5" width="318" height="194" filterUnits="userSpaceOnUse" color-interpolation-filters="sRGB">
<feFlood flood-opacity="0" result="BackgroundImageFix"/>
<feColorMatrix in="SourceAlpha" type="matrix" values="0 0 0 0 0 0 0 0 0 0 0 0 0 0 0 0 0 0 127 0" result="hardAlpha"/>
<feOffset dy="4"/>
<feGaussianBlur stdDeviation="8"/>
<feComposite in2="hardAlpha" operator="out"/>
<feColorMatrix type="matrix" values="0 0 0 0 0.537255 0 0 0 0 0.823529 0 0 0 0 0.101961 0 0 0 0.2 0"/>
<feBlend mode="normal" in2="BackgroundImageFix" result="effect1_dropShadow_203_1331"/>
<feBlend mode="normal" in="SourceGraphic" in2="effect1_dropShadow_203_1331" result="shape"/>
</filter>
</defs>
</svg>
